<?xml version="1.0" encoding="UTF-8"?><svg id="Layer_2" xmlns="http://www.w3.org/2000/svg" viewBox="0 0 64 64"><g id="Layer_1-2"><g id="Layer_2-2"><g id="Layer_1-2"><g id="T3-agency"><g id="T3-Nitsan"><g id="T3-Company"><g id="T3-Business"><g id="T3-Karma"><rect width="64" height="64" style="fill:#fed136; stroke-width:0px;"/></g></g></g></g><path d="M14.52,20.15c-.97.05-1.92-.31-2.61-1-.59-.61-.92-1.43-.91-2.28,0-.27.05-.54.11-.81.06-.28.15-.55.27-.81.54.12,1.09.19,1.64.21.72.04,1.56.06,2.52.06h4.91c1.75,0,3.5-.08,5.24-.25l4.42-.49c1.27-.16,2.1-.23,2.46-.23.92-.07,1.8.38,2.28,1.16.51.97.85,2.03,1,3.12-.73-.08-1.46-.12-2.19-.12h-4.55c-.93,0-1.86.05-2.78.17-.4.82-.83,1.79-1.32,2.92s-1,2.29-1.42,3.51-.91,2.43-1.34,3.64-.79,2.29-1.1,3.26c-.62,1.87-1.17,3.6-1.63,5.19s-.88,3.08-1.24,4.45-.65,2.69-.91,3.94-.48,2.47-.68,3.66c-2.05-.39-3.81-1.7-4.76-3.56.23-.88.51-1.84.83-2.87s.71-2.21,1.15-3.52.95-2.81,1.55-4.49c.6-1.68,1.27-3.56,2-5.69l.89-2.48c.31-.86.62-1.72.91-2.57s.57-1.67.81-2.46.45-1.52.62-2.17c-1.19.14-2.32.26-3.38.36s-1.96.15-2.79.15Z" style="fill:#fff; stroke-width:0px;"/><path d="M37.58,17.77c.55-.32,1.14-.58,1.75-.77.77-.29,1.57-.52,2.37-.71.85-.19,1.71-.35,2.57-.46.77-.11,1.54-.17,2.32-.17,1.02-.03,2.04.14,3,.49.75.28,1.43.71,2,1.27.49.5.87,1.1,1.1,1.76.23.64.34,1.32.34,2,0,.77-.14,1.53-.4,2.25-.29.84-.68,1.64-1.17,2.38-.54.83-1.16,1.6-1.85,2.31-.73.75-1.53,1.42-2.4,2,1.52.07,2.96.67,4.08,1.7.89,1,1.34,2.31,1.27,3.65.02,1.34-.25,2.67-.8,3.89-.54,1.14-1.28,2.17-2.19,3.05-.94.91-2,1.68-3.16,2.3-1.2.64-2.46,1.16-3.76,1.57-1.31.41-2.64.71-4,.89-1.28.18-2.57.27-3.86.28-.99-.19-1.86-.79-2.38-1.66-.57-.98-.85-2.1-.81-3.23,0-.08,0-.17,0-.25,0-.1,0-.2,0-.3,1.11.3,2.25.43,3.4.39,1.57-.02,3.14-.18,4.68-.5,1.59-.32,3.14-.82,4.62-1.49,1.31-.58,2.5-1.4,3.52-2.41.9-.89,1.41-2.1,1.4-3.36.03-.86-.3-1.7-.91-2.31-.8-.69-1.81-1.1-2.87-1.17-.76.47-1.58.83-2.44,1.07-.57.18-1.16.29-1.76.32-.66,0-1.28-.31-1.66-.85-.51-.76-.75-1.67-.68-2.59,1.38,0,2.75-.15,4.1-.42,1.38-.27,2.71-.76,3.92-1.47,1.19-.69,2.21-1.63,3-2.76.85-1.29,1.3-2.8,1.29-4.35-.12-.54-.49-1-1-1.23-.59-.27-1.24-.4-1.89-.38-.75,0-1.5.1-2.23.29-.83.21-1.64.49-2.42.83-.83.36-1.62.79-2.37,1.28-.7.45-1.35.99-1.93,1.59-.6-.37-1.08-.91-1.37-1.55-.34-.75-.51-1.57-.49-2.4v-.38c.01-.13.04-.26.07-.39Z" style="fill:#fff; stroke-width:0px;"/></g></g></g></g></svg>