<?xml version="1.0" encoding="UTF-8"?>
<svg xmlns="http://www.w3.org/2000/svg" width="426" height="125" viewBox="0 0 426 125">
  <defs>
    <style>.cls-1{fill:none;}.cls-2{fill:#fed136;}</style>
  </defs>
  <g id="Layer_2" data-name="Layer 2">
    <g id="Layer_1-2" data-name="Layer 1">
      <g id="T3-agency-logo">
        <rect class="cls-1" width="426" height="125"></rect>
        <path class="cls-2" d="M21.9,22.5a7.73,7.73,0,0,1-5.85-2.14A7.25,7.25,0,0,1,14,15.16a8.36,8.36,0,0,1,.24-1.82,8,8,0,0,1,.62-1.81,19.22,19.22,0,0,0,3.66.47c1.62.09,3.5.13,5.66.13h11a116.16,116.16,0,0,0,11.74-.57c3.74-.39,7-.75,9.9-1.1s4.69-.52,5.51-.52a5.48,5.48,0,0,1,5.09,2.62,20.2,20.2,0,0,1,2.33,7,42.75,42.75,0,0,0-4.9-.28H54.57a50.44,50.44,0,0,0-6.23.38q-1.34,2.76-3,6.53c-1.08,2.51-2.14,5.14-3.19,7.87s-2,5.46-3,8.16-1.78,5.13-2.47,7.29q-2.1,6.3-3.67,11.64t-2.76,10c-.79,3.08-1.47,6-2,8.82s-1.08,5.54-1.52,8.21q-6.37-1-10.66-8,.77-3,1.86-6.43c.73-2.31,1.58-4.94,2.57-7.89s2.14-6.29,3.47-10,2.85-8,4.56-12.74l2-5.57q1.05-2.9,2.05-5.75c.66-1.91,1.27-3.74,1.8-5.52s1-3.39,1.38-4.85q-4,.48-7.56.81T21.9,22.5Z"></path>
        <path class="cls-2" d="M73.55,17.17a18.83,18.83,0,0,1,3.9-1.85,45.75,45.75,0,0,1,5.32-1.57c1.91-.44,3.82-.79,5.76-1.05a40.88,40.88,0,0,1,5.18-.38,18.07,18.07,0,0,1,6.66,1.1,12.64,12.64,0,0,1,4.47,2.85,10.67,10.67,0,0,1,2.48,3.95,13.72,13.72,0,0,1,.76,4.47,15.56,15.56,0,0,1-.91,5,24.28,24.28,0,0,1-2.61,5.33,34.05,34.05,0,0,1-4.14,5.18,33.83,33.83,0,0,1-5.37,4.52q6.27.77,9.13,3.8A11.49,11.49,0,0,1,107,56.74a20.19,20.19,0,0,1-1.81,8.71,23,23,0,0,1-4.9,6.85,31.16,31.16,0,0,1-7.08,5.13A47.34,47.34,0,0,1,84.82,81a54.74,54.74,0,0,1-9,2,65,65,0,0,1-8.66.62,7.93,7.93,0,0,1-5.32-3.71A13.54,13.54,0,0,1,60,72.63a2.75,2.75,0,0,1,.05-.57,4.38,4.38,0,0,0,0-.67,25.15,25.15,0,0,0,7.61,1A52.07,52.07,0,0,0,78.21,71.2a47.17,47.17,0,0,0,10.37-3.33,25.71,25.71,0,0,0,7.89-5.42,10.46,10.46,0,0,0,3.14-7.51,7,7,0,0,0-2-5.19q-2.05-2-6.42-2.61a22,22,0,0,1-5.47,2.42,16.45,16.45,0,0,1-4,.72A4.59,4.59,0,0,1,78,48.37c-1-1.26-1.52-3.2-1.52-5.8a47.13,47.13,0,0,0,9.08-1,28.17,28.17,0,0,0,8.8-3.28,21.4,21.4,0,0,0,6.71-6.18A17.67,17.67,0,0,0,104,22.4a4,4,0,0,0-2.24-2.75,9.58,9.58,0,0,0-4.23-.86,20.84,20.84,0,0,0-5,.67,33.38,33.38,0,0,0-5.42,1.85,35.42,35.42,0,0,0-5.23,2.85,24.9,24.9,0,0,0-4.33,3.57,7.66,7.66,0,0,1-3-3.47,12.47,12.47,0,0,1-1.1-5.37V18A4.06,4.06,0,0,1,73.55,17.17Z"></path>
        <path class="cls-2" d="M140.8,87.38a21.15,21.15,0,0,1-6.33-2.67,4,4,0,0,1-1.76-3.34,15.74,15.74,0,0,1,.86-4.28,61.77,61.77,0,0,1,2.52-6.53q1.66-3.77,4-8.34t5.28-9.81h-7.61c.38-.95,1.45-1.78,3.23-2.48a37.08,37.08,0,0,1,7-1.81A135,135,0,0,1,156,36.28q4.23-5.62,8.52-10.35a84.67,84.67,0,0,1,8.56-8.3A49.26,49.26,0,0,1,181.23,12c.06-.45.11-.83.14-1.15s0-.54,0-.67a13.41,13.41,0,0,1,3.56.67,34.92,34.92,0,0,1,4.38,1.62,33.62,33.62,0,0,1,3.81,1.95c1.1.66,1.72,1.22,1.85,1.66q-3.14,5.52-6.18,16.51a193.23,193.23,0,0,0-5,26.3c-.32,2.54-.59,5.42-.81,8.66s-.34,6.84-.34,10.84v4.28c0,1.46.07,3,.2,4.57a.92.92,0,0,1-.39.09h-.76a13.49,13.49,0,0,1-3.09-.42,32.19,32.19,0,0,1-3.42-1,15.58,15.58,0,0,1-2.86-1.36,4.16,4.16,0,0,1-1.47-1.31c-.06-.81-.1-1.61-.1-2.39V78.29q0-5.81.43-11.8t1.48-12.36a5.72,5.72,0,0,0-3.52-1H152.4q-2.28,4.23-4.28,8.4a75.4,75.4,0,0,0-3.42,8.39,75.14,75.14,0,0,0-2.62,9A59.48,59.48,0,0,0,140.8,87.38Zm36.72-57.14c.25-.89.55-2.12.9-3.68s.68-3.2,1-4.92a19.58,19.58,0,0,0-5.28,3.15,50.54,50.54,0,0,0-6,5.67q-3.09,3.38-6.28,7.62t-6.14,9q8-.81,18.17-.81c.51-2.67,1.06-5.33,1.67-8S176.82,33,177.52,30.24Z"></path>
        <path class="cls-2" d="M174.38,108.49a1.63,1.63,0,0,1,.38-1,9.35,9.35,0,0,1,.86-1,21.3,21.3,0,0,0,1.95,1.61,12.78,12.78,0,0,0,1.52,1,4,4,0,0,0,1.47.48,15.7,15.7,0,0,0,1.81.09,18.4,18.4,0,0,0,9.42-2.61,31.26,31.26,0,0,0,8.42-7.56,57.55,57.55,0,0,0,7.18-12.08,108.58,108.58,0,0,0,5.7-16.18,36.21,36.21,0,0,1-2.8,2.52c-1.11.92-2.27,1.8-3.47,2.62s-2.4,1.59-3.57,2.28a20.34,20.34,0,0,1-3,1.53,6.59,6.59,0,0,1-3-1.38,11.37,11.37,0,0,1-2.43-2.71,13.16,13.16,0,0,1-1.62-3.67,16,16,0,0,1-.57-4.33A22.8,22.8,0,0,1,194,60.45a41.42,41.42,0,0,1,3.66-7.65,44.3,44.3,0,0,1,5.38-7.09,43.23,43.23,0,0,1,6.56-5.8,35.49,35.49,0,0,1,7-3.95,18.28,18.28,0,0,1,7-1.47,7.71,7.71,0,0,1,5,1.38,8.31,8.31,0,0,1,2.42,4.7,5.52,5.52,0,0,0-2.66-.57,10.65,10.65,0,0,0-5.28,1.81A37.1,37.1,0,0,0,217,46.52a70,70,0,0,0-11.51,14.32,52.88,52.88,0,0,0-3.8,7.61,18.13,18.13,0,0,0-1.48,6.65,1.78,1.78,0,0,0,.1.81.31.31,0,0,0,.28.15,4.78,4.78,0,0,0,2.33-1,39.58,39.58,0,0,0,3.33-2.42,51.38,51.38,0,0,0,3.86-3.43q2-1.95,3.8-3.94a66,66,0,0,0,7.47-10.23,68,68,0,0,0,5.37-11,19.25,19.25,0,0,1,4.57.86,7.21,7.21,0,0,1,2.76,1.43q-3.24,7.41-5.19,12.46t-3.37,8.94q-2.58,6.85-4.81,12.51t-4.56,10.46a80.1,80.1,0,0,1-5.05,8.94,65.39,65.39,0,0,1-6.13,8,19.91,19.91,0,0,1-3.66,3.18,27.16,27.16,0,0,1-4.19,2.33,23.26,23.26,0,0,1-4.18,1.43,16.62,16.62,0,0,1-3.76.48,21.56,21.56,0,0,1-4.66-.53,23.68,23.68,0,0,1-4.43-1.42,16.72,16.72,0,0,1-3.56-2.1A7.44,7.44,0,0,1,174.38,108.49Z"></path>
        <path class="cls-2" d="M270.45,40.76a32.54,32.54,0,0,1-2.09,10.13,21.88,21.88,0,0,1-4.9,7.42,35.2,35.2,0,0,1-7.75,5.76,85.85,85.85,0,0,1-10.65,5c0,.38,0,.77-.05,1.19s0,.84,0,1.28a17.8,17.8,0,0,0,.19,2.57,10.08,10.08,0,0,0,.67,2.47,4.72,4.72,0,0,0,1.33,1.86,3.33,3.33,0,0,0,2.19.71,11.93,11.93,0,0,0,5-1.14,26.28,26.28,0,0,0,4.71-2.81,38,38,0,0,0,4.18-3.61q2-2,3.47-3.57a17.63,17.63,0,0,1,1.62,1.62A45.71,45.71,0,0,1,259,79.05a26.59,26.59,0,0,1-9.65,4.81q-6.57-.77-10.23-4.81a14,14,0,0,1-3.66-9.75,30.24,30.24,0,0,1,1.09-7.94,38.84,38.84,0,0,1,3.05-7.8,45.05,45.05,0,0,1,4.56-7.09,38.25,38.25,0,0,1,5.61-5.8,27.07,27.07,0,0,1,6.19-3.9,15.37,15.37,0,0,1,6.32-1.43Q266.65,35.91,270.45,40.76Zm-6.56,3.14a14.12,14.12,0,0,0-5.33,2.1,22.28,22.28,0,0,0-5.18,4.56A35.83,35.83,0,0,0,249,57.22a38.09,38.09,0,0,0-3.14,8.18A42.34,42.34,0,0,0,258.47,56,19.46,19.46,0,0,0,263.89,43.9Z"></path>
        <path class="cls-2" d="M290.24,34a10.06,10.06,0,0,1,4.66,3.38,17.57,17.57,0,0,1,3.24,5.75,46.22,46.22,0,0,1-3.24,6.19c-1.46,2.41-2.92,4.86-4.37,7.37s-2.78,4.88-3.95,7.13a17.69,17.69,0,0,0-2.05,5.57c1-1.08,2.14-2.33,3.38-3.76s2.44-2.85,3.61-4.28,2.27-2.73,3.29-3.9,1.8-2.05,2.37-2.62q1.81-1.91,4.29-4.42a64.76,64.76,0,0,1,5.18-4.76,38.29,38.29,0,0,1,5.47-3.8,10.33,10.33,0,0,1,5-1.57A5.62,5.62,0,0,1,321.3,42a14.42,14.42,0,0,1,2.61,3.47c0,.13-.23.31-.71.53a7.8,7.8,0,0,0-2,1.85,37.17,37.17,0,0,0-3,4.71q-1.67,3-3.23,6.47a53,53,0,0,0-2.62,7.09,23.75,23.75,0,0,0-1.05,6.56c0,1.59.21,2.6.62,3a2.26,2.26,0,0,0,1.76.67,5.8,5.8,0,0,0,2.19-.47,5,5,0,0,1,1.81-.48,1.46,1.46,0,0,1,.62.81,3.28,3.28,0,0,1,.23,1.09,14.51,14.51,0,0,1-1.8,1.33,23.35,23.35,0,0,1-2.19,1.24,18.29,18.29,0,0,1-2.24,1,6.13,6.13,0,0,1-1.95.38,10.88,10.88,0,0,1-4.52-.81A7,7,0,0,1,303,78.24a7.85,7.85,0,0,1-1.37-3.18,19.31,19.31,0,0,1-.19-6.52,22.48,22.48,0,0,1,.76-3.38c.38-1.3.91-2.85,1.61-4.66s1.59-4,2.67-6.51a18.19,18.19,0,0,0-2.57,1.33,24.39,24.39,0,0,0-5.14,4.09,115.33,115.33,0,0,0-8,8.46c-2.37,2.8-4.8,5.9-7.27,9.33-1.4,2-2.62,3.63-3.67,5a10.61,10.61,0,0,1-2.71,2.71,7,7,0,0,1-2.95-3.18,20.14,20.14,0,0,1-1.42-4.24,25.25,25.25,0,0,1,.52-4.56c.35-1.84.82-3.89,1.43-6.14s1.34-4.61,2.23-7.09,1.87-4.94,2.95-7.42a100.12,100.12,0,0,1,6.61-13.12C288.48,36,289.73,34.26,290.24,34Z"></path>
        <path class="cls-2" d="M326.77,63.4A25.91,25.91,0,0,1,329,52.89a32.25,32.25,0,0,1,5.9-9,30.11,30.11,0,0,1,8.37-6.38A21.12,21.12,0,0,1,353,35.06q5,0,7.61,2.47a9.11,9.11,0,0,1,2.67,7,14.58,14.58,0,0,1-.62,4.23,15.31,15.31,0,0,1-1.62,3.66,9.45,9.45,0,0,1-2.33,2.62,4.42,4.42,0,0,1-2.66,1,4.56,4.56,0,0,1-2.33-.71,6,6,0,0,1-1.95-1.86q6.36-5.8,6.37-10.56,0-2.76-2.19-2.76A9.56,9.56,0,0,0,351.22,42a26.63,26.63,0,0,0-5.52,4.76,32.29,32.29,0,0,0-8.37,21.78q0,7.71,3.42,9.23a17.08,17.08,0,0,0,3.33-.86,34.5,34.5,0,0,0,4.09-1.76c1.46-.73,3-1.57,4.52-2.52s3.06-2,4.52-3a2.79,2.79,0,0,1,1,1.9,36.34,36.34,0,0,1-3.71,3.9,39.93,39.93,0,0,1-4.38,3.47,39.09,39.09,0,0,1-4.42,2.67,14.06,14.06,0,0,1-3.76,1.37A13.61,13.61,0,0,1,336,81a17,17,0,0,1-4.81-4.32,22,22,0,0,1-4.42-13.23Z"></path>
        <path class="cls-2" d="M401.92,65.4q-2.19,6.94-4.38,12.65a104.64,104.64,0,0,1-4.66,10.51,73.28,73.28,0,0,1-5.33,8.85,67.46,67.46,0,0,1-6.28,7.66,35.23,35.23,0,0,1-9,7,20,20,0,0,1-9.32,2.43,21.32,21.32,0,0,1-4.71-.53,23.89,23.89,0,0,1-4.38-1.42,17.92,17.92,0,0,1-3.61-2.1,7.42,7.42,0,0,1-2.24-2.52,2.44,2.44,0,0,1,1.33-2c.76.7,1.4,1.24,1.91,1.62a10.39,10.39,0,0,0,1.47.95,4.29,4.29,0,0,0,1.52.48,17,17,0,0,0,1.86.09,20,20,0,0,0,10.6-3.18,38.21,38.21,0,0,0,9.8-9,69.34,69.34,0,0,0,8.42-14.17,113,113,0,0,0,6.47-18.6l-3.05,4.65a66.87,66.87,0,0,1-4,5.45,47.64,47.64,0,0,1-4.52,4.89A13.17,13.17,0,0,1,375.28,82a10.65,10.65,0,0,1-3.19-.53A12.64,12.64,0,0,1,369,80a11.74,11.74,0,0,1-2.62-2.3,6.91,6.91,0,0,1-1.52-3.06,39.89,39.89,0,0,1,.19-4.42,31.25,31.25,0,0,1,.66-3.67,74.26,74.26,0,0,1,2.52-8.18,83.34,83.34,0,0,1,3.9-9,66,66,0,0,1,5-8.27,26.14,26.14,0,0,1,5.66-6,14.73,14.73,0,0,1,1.9.14,13.8,13.8,0,0,1,2.38.52,19.86,19.86,0,0,1,2.38.91,6.68,6.68,0,0,1,2,1.38,45.66,45.66,0,0,0-4.57,6.37A103.33,103.33,0,0,0,379,60a31.61,31.61,0,0,0-1.14,3c-.44,1.33-.87,2.73-1.28,4.19s-.78,2.89-1.1,4.28a15.65,15.65,0,0,0-.47,3.33,2.26,2.26,0,0,0,.23,1.14,3.48,3.48,0,0,0,.43.57c1.14-.19,2.67-1.12,4.57-2.81a42.3,42.3,0,0,0,6.47-7.84c1.52-2.29,2.91-4.55,4.18-6.8s2.52-4.52,3.76-6.81,2.52-4.62,3.85-7,2.76-4.88,4.28-7.41a13.63,13.63,0,0,1,2.67.28,25.71,25.71,0,0,1,2.75.71,16.44,16.44,0,0,1,2.34.95,4.92,4.92,0,0,1,1.47,1.1q-3,6.27-5.52,12.27T401.92,65.4Z"></path>
      </g>
    </g>
  </g>
</svg>
